<svg width="23" height="90" viewBox="0 0 23 90" fill="none" xmlns="http://www.w3.org/2000/svg">
<g filter="url(#filter0_d_16_226)">
<path d="M12 0.99228C11.9957 0.440012 11.5445 -0.00423356 10.9923 2.98023e-05C10.44 0.00429317 9.99577 0.455451 10 1.00772L12 0.99228ZM10.9159 81.7102C11.3095 82.0977 11.9426 82.0928 12.3301 81.6992L18.6447 75.2863C19.0322 74.8928 19.0274 74.2597 18.6338 73.8722C18.2403 73.4847 17.6072 73.4896 17.2197 73.8831L11.6066 79.5834L5.90629 73.9704C5.51276 73.5829 4.87962 73.5878 4.49212 73.9813C4.10462 74.3749 4.10951 75.008 4.50304 75.3955L10.9159 81.7102ZM10 1.00772L10.6176 81.0053L12.6175 80.9899L12 0.99228L10 1.00772Z" fill="#9B9C9C"/>
</g>
<defs>
<filter id="filter0_d_16_226" x="0.204666" y="0" width="22.7275" height="89.9976" filterUnits="userSpaceOnUse" color-interpolation-filters="sRGB">
<feFlood flood-opacity="0" result="BackgroundImageFix"/>
<feColorMatrix in="SourceAlpha" type="matrix" values="0 0 0 0 0 0 0 0 0 0 0 0 0 0 0 0 0 0 127 0" result="hardAlpha"/>
<feOffset dy="4"/>
<feGaussianBlur stdDeviation="2"/>
<feComposite in2="hardAlpha" operator="out"/>
<feColorMatrix type="matrix" values="0 0 0 0 0 0 0 0 0 0 0 0 0 0 0 0 0 0 0.25 0"/>
<feBlend mode="normal" in2="BackgroundImageFix" result="effect1_dropShadow_16_226"/>
<feBlend mode="normal" in="SourceGraphic" in2="effect1_dropShadow_16_226" result="shape"/>
</filter>
</defs>
</svg>
